<svg xmlns="http://www.w3.org/2000/svg" width="60" height="60" id="contact">
  <path d="M22 8C14.261 8 8 14.261 8 22v16c0 7.739 6.261 14 14 14h16c7.739 0 14-6.261 14-14V22c0-7.739-6.261-14-14-14H22zm0 2h15v40H22c-6.665 0-12-5.335-12-12V22c0-6.665 5.335-12 12-12zm17 .05c6.19.505 11 5.623 11 11.95v1H39V10.05zM39 25h11v10H39V25zm0 12h11v1a11.94 11.94 0 0 1-11 11.949v-12.95z" color="#000" style="font-feature-settings:normal;font-variant-alternates:normal;font-variant-caps:normal;font-variant-east-asian:normal;font-variant-ligatures:normal;font-variant-numeric:normal;font-variant-position:normal;font-variation-settings:normal;inline-size:0;isolation:auto;mix-blend-mode:normal;shape-margin:0;shape-padding:0;text-decoration-color:#000;text-decoration-line:none;text-decoration-style:solid;text-indent:0;text-orientation:mixed;text-transform:none"></path>
  <path d="M24 21c-3.302 0-6 2.698-6 6a5.98 5.98 0 0 0 1.758 4.232C17.506 32.65 16 35.152 16 38a1 1 0 0 0 1 1 1 1 0 0 0 1-1 5.973 5.973 0 0 1 3.62-5.496 5.946 5.946 0 0 0 4.762 0c2.128.92 3.618 3.02 3.618 5.496a1 1 0 0 0 1 1 1 1 0 0 0 1-1c0-2.848-1.506-5.35-3.758-6.768A5.98 5.98 0 0 0 30 27c0-3.302-2.698-6-6-6zm0 2c2.221 0 4 1.779 4 4s-1.779 4-4 4-4-1.779-4-4 1.779-4 4-4z" color="#000" style="font-feature-settings:normal;font-variant-alternates:normal;font-variant-caps:normal;font-variant-east-asian:normal;font-variant-ligatures:normal;font-variant-numeric:normal;font-variant-position:normal;font-variation-settings:normal;inline-size:0;isolation:auto;mix-blend-mode:normal;shape-margin:0;shape-padding:0;text-decoration-color:#000;text-decoration-line:none;text-decoration-style:solid;text-indent:0;text-orientation:mixed;text-transform:none"></path>
</svg>
