<svg xmlns="http://www.w3.org/2000/svg" viewBox="0 0 512 512" id="procurement">
  <path d="m407.275,401.515h-49.072c.97-2.315,1.51-4.854,1.51-7.518v-173.537c0-10.762-8.756-19.517-19.518-19.517h-67.001c.069-.557.116-1.12.116-1.695v-98.779c0-7.551-6.144-13.694-13.694-13.694h-98.78c-.575,0-1.137.047-1.693.116v-.41c0-11.548-3.433-22.347-9.931-31.23-5.418-7.409-18.075-18.432-30.739-18.432h-10.939c-1.999-2.477-5.055-4.066-8.478-4.066H26.513c-12.413,0-22.513,10.1-22.513,22.514s10.1,22.513,22.513,22.513h72.543c3.423,0,6.478-1.59,8.477-4.066h5.908c4.824,0,8.843,3.146,10,7.832.38,1.541.573,3.179.573,4.869-.002,40.368-.002,152.839-.002,222.783v31.996c-28.607,6.502-52.607,28.556-60.028,58.941-5.061,20.726-1.747,42.182,9.329,60.415,11.077,18.234,28.592,31.062,49.317,36.124,6.34,1.548,12.688,2.289,18.943,2.288,35.951,0,68.695-24.49,77.596-60.935.112-.46.198-.922.302-1.383h187.804c9.685,0,17.564-7.879,17.564-17.564s-7.88-17.564-17.564-17.564ZM97.951,65.778H26.513c-5.796,0-10.513-4.716-10.513-10.513s4.716-10.513,10.513-10.513h71.438v21.025Zm190.272,147.166v84.687l-31.797-18.357c-1.857-1.072-4.145-1.072-6,0l-31.796,18.358v-84.688h69.593Zm-92.287-114.169h28.578v33.876l-11.289-6.518c-1.857-1.072-4.143-1.072-6,0l-11.289,6.518v-33.876Zm-36.795,54.696v-53.009c.005-.915.779-1.687,1.694-1.687h23.101v44.269c0,2.144,1.144,4.124,3,5.196,1.855,1.072,4.143,1.072,6,0l17.289-9.982,17.289,9.982c.929.536,1.964.804,3,.804s2.072-.268,3-.804c1.856-1.072,3-3.053,3-5.196v-44.269h23.102c.919,0,1.694.776,1.694,1.694v98.779c0,.918-.775,1.694-1.694,1.694h-98.78c-.918,0-1.694-.776-1.694-1.694v-45.778Zm-45.701-91.758h-3.489v-12.894h8.521c6.682,0,16.28,6.988,21.054,13.516,4.983,6.813,7.617,15.163,7.616,24.146v13.974c0,.005,0,.01,0,.015v119.991c0,.007,0,.013,0,.019v118.938c-3.741-.263-7.458-.268-11.13-.009v-30.213c0-69.944,0-182.414.002-222.783,0-2.66-.311-5.267-.924-7.747-2.465-9.982-11.367-16.954-21.649-16.954Zm94.07,373.468c-7.562,30.972-35.385,51.782-65.937,51.78-5.313,0-10.713-.63-16.099-1.945-17.611-4.3-32.494-15.201-41.907-30.696-9.412-15.494-12.228-33.727-7.927-51.339,7.562-30.971,35.384-51.779,65.937-51.779,5.313,0,10.713.63,16.099,1.945,36.356,8.877,58.712,45.678,49.834,82.034Zm2.329-57.568c-11.076-18.234-28.591-31.062-49.317-36.124-.46-.112-.92-.196-1.381-.3v-120.727c0-4.145,3.372-7.517,7.518-7.517h39.972v95.08c0,2.144,1.144,4.124,3,5.196.929.536,1.964.804,3,.804s2.072-.268,3-.804l37.796-21.823,37.797,21.822c1.857,1.072,4.145,1.072,6,0,1.856-1.072,3-3.053,3-5.196v-95.079h39.972c4.146,0,7.518,3.372,7.518,7.517v173.537c0,4.146-3.372,7.518-7.518,7.518h-120.685c-1.885-8.329-5.108-16.392-9.671-23.903Zm197.436,47.032h-186.024c.268-3.721.277-7.437.023-11.129h186.001c3.068,0,5.564,2.496,5.564,5.564s-2.496,5.564-5.564,5.564Zm-253.759-54.463c-13.064-3.189-26.584-1.102-38.073,5.88-11.491,6.98-19.576,18.018-22.766,31.079-3.189,13.061-1.102,26.582,5.879,38.073s18.019,19.575,31.079,22.765c3.992.975,8.026,1.456,12.032,1.456,9.104,0,18.062-2.488,26.041-7.335,11.491-6.98,19.576-18.018,22.766-31.079,3.189-13.061,1.102-26.582-5.879-38.073s-18.019-19.576-31.079-22.766Zm25.3,57.992c-2.429,9.947-8.586,18.354-17.337,23.67-8.753,5.315-19.049,6.905-28.997,4.477-9.947-2.429-18.354-8.585-23.67-17.337-5.316-8.751-6.906-19.049-4.477-28.996,2.429-9.948,8.586-18.354,17.338-23.67,6.077-3.692,12.899-5.587,19.833-5.587,3.05,0,6.123.367,9.162,1.109h0c9.947,2.429,18.354,8.586,23.67,17.338,5.316,8.751,6.906,19.049,4.477,28.996Zm-29.75-39.771c-16.916-4.128-34.037,6.271-38.169,23.188-4.13,16.915,6.271,34.037,23.188,38.169,2.507.611,5.017.904,7.489.904,14.215,0,27.162-9.684,30.68-24.092,2.001-8.194.691-16.678-3.688-23.887-4.379-7.209-11.304-12.281-19.499-14.282Zm11.529,35.322c-2.56,10.487-13.172,16.939-23.664,14.376-10.488-2.561-16.937-13.177-14.376-23.664,2.182-8.935,10.207-14.938,19.021-14.938,1.532,0,3.091.182,4.644.562h0c5.081,1.24,9.374,4.385,12.089,8.854,2.716,4.469,3.527,9.729,2.286,14.81ZM412.431,13.039c-52.697,0-95.569,42.872-95.569,95.569s42.872,95.569,95.569,95.569,95.569-42.872,95.569-95.569S465.128,13.039,412.431,13.039Zm0,179.139c-46.08,0-83.569-37.489-83.569-83.569s37.489-83.569,83.569-83.569,83.569,37.489,83.569,83.569-37.489,83.569-83.569,83.569Zm43.672-126.788c-7.994-5.857-19.261-4.121-25.111,3.864l-27.75,37.742-9.367-12.738c-5.856-7.99-17.123-9.726-25.117-3.87-7.99,5.858-9.727,17.126-3.868,25.117,0,.003.003.005.005.007l23.854,32.444c2.837,3.872,7.013,6.406,11.757,7.137.927.143,1.854.214,2.773.214,3.791,0,7.471-1.197,10.584-3.479,1.573-1.152,2.938-2.539,4.058-4.123l42.054-57.196c5.856-7.993,4.12-19.261-3.871-25.118Zm-5.803,18.018l-42.085,57.239c-.027.037-.055.074-.081.112-.371.531-.83.997-1.363,1.389-1.286.943-2.859,1.331-4.438,1.085-1.576-.242-2.963-1.084-3.911-2.377l-23.858-32.45c-1.941-2.655-1.363-6.395,1.289-8.339,2.655-1.946,6.398-1.369,8.35,1.293l14.206,19.32c1.131,1.537,2.926,2.445,4.834,2.445s3.703-.908,4.834-2.446l32.589-44.324c1.945-2.655,5.689-3.231,8.345-1.286,2.655,1.946,3.231,5.69,1.291,8.339Z"></path>
</svg>
