<?xml version="1.0" encoding="UTF-8"?>
<!DOCTYPE svg PUBLIC "-//W3C//DTD SVG 1.1//EN" "http://www.w3.org/Graphics/SVG/1.1/DTD/svg11.dtd">
<!-- Creator: CorelDRAW -->
<svg xmlns="http://www.w3.org/2000/svg" xml:space="preserve" width="9.85087in" height="9.85087in" version="1.1" style="shape-rendering:geometricPrecision; text-rendering:geometricPrecision; image-rendering:optimizeQuality; fill-rule:evenodd; clip-rule:evenodd"
viewBox="0 0 9850.87 9850.87"
 xmlns:xlink="http://www.w3.org/1999/xlink"
 xmlns:xodm="http://www.corel.com/coreldraw/odm/2003">
 <defs>
  <style type="text/css">
   <![CDATA[
    .fil0 {fill:#FEFEFE}
    .fil3 {fill:#FFCC29}
    .fil2 {fill:#FFCC29}
    .fil4 {fill:#ED3237}
    .fil1 {fill:#D52E27}
   ]]>
  </style>
 </defs>
 <g id="Layer_x0020_1">
  <metadata id="CorelCorpID_0Corel-Layer"/>
  <rect class="fil0" x="-1.24" y="1.23" width="9850.87" height="9850.87" rx="1485.46" ry="1485.46"/>
  <g id="_1995818102800">
   <path class="fil1" d="M4872.67 2432.53c2.86,-226.8 52.95,-233.78 269.1,-231.19l-10.94 868.74c-5.47,434.47 441.08,398.78 500.16,130.8 41.98,-190.45 21.49,-748.91 23.71,-981.48l260.85 -0.48c-3.19,253.21 -6.98,506.49 -9.43,759.7 -2.63,271.91 -17.53,442.27 -192.6,567.52 -159.19,113.89 -435.81,119.72 -617.31,28.35 -318.27,-160.22 -229.38,-677.46 -223.53,-1141.96zm-2085.74 160.97c416.37,-78.84 510.89,526.02 119.33,591.11 -422.04,70.15 -535.15,-512.37 -119.33,-591.11zm789.76 992.91c20.37,-1617 -124.24,-1406.34 620.22,-1396.97 537.23,6.77 497.65,520.26 267.77,638.98 4.71,4.62 11.47,10.39 14.72,13.23l97.38 86.57c96.94,109.5 99.64,294.35 49.26,427.24 -120.43,317.71 -743.86,266.57 -1049.35,230.94zm2993.43 37.7c1.7,-135.31 18,-360.38 4.09,-485.28 -10.04,-90.09 -102.61,-240.48 -140.77,-318.1 -88.75,-180.56 -251.55,-432.72 -306.94,-604.49 413.98,-5.11 279.31,-47.3 512.56,454.17l96.59 151.91c30.74,-124.12 111.17,-272.81 163.61,-399.34 98.72,-238.2 88.45,-198.37 378.17,-194.72 -41.2,145.91 -229.05,477.06 -306.48,628.22 -170.17,332.23 -129.24,362.43 -134.2,773.23l-266.63 -5.58zm-4382.31 -1437.88c-10.74,340.23 -9.09,683.53 -14.49,1024.23 -4.52,285.25 -45.58,243.02 104.5,405.8l785.27 737.2c138.97,110.28 136.12,148.05 368.29,148.62l3501.42 43.22c202.68,2.67 301.9,37.3 449.22,-59.69 91.14,-60 216.59,-120.64 270.98,-216.64 9.79,-777.02 12.31,-1557.61 29.77,-2334.09 6.78,-301.68 -27.11,-253.77 -170.36,-416.41 -153.18,-173.91 -105.26,-166.09 -412.36,-168.11 -384.28,-2.52 -782.39,-10.53 -1167,-20.92 -763.49,-20.62 -1572.06,-46.32 -2333.82,-32.99 -539.34,9.44 -313.36,2.37 -796.77,368.48 -66.36,50.26 -98.15,91.32 -160.39,143.34l-454.26 377.96z"/>
   <path class="fil2" d="M3857.22 2971.64c124.63,1.54 385.39,-28.01 469.94,50.69 95.7,89.07 74.66,278.38 -81.18,308.61l-393.31 2.15 4.56 -361.44zm371.06 -249.86l-367.94 4.14 22.54 -299.6c89.61,1.09 351.39,-6.22 409.44,27.68 101.62,59.34 90.87,231.59 -64.04,267.78zm-651.59 864.63c305.49,35.63 928.93,86.77 1049.35,-230.94 50.38,-132.89 47.67,-317.74 -49.26,-427.24l-97.38 -86.57c-3.25,-2.85 -10.01,-8.61 -14.72,-13.23 229.88,-118.72 269.46,-632.21 -267.77,-638.98 -744.47,-9.37 -599.86,-220.03 -620.22,1396.97z"/>
   <path class="fil2" d="M4872.67 2432.53c-5.85,464.51 -94.74,981.74 223.53,1141.96 181.51,91.37 458.13,85.54 617.31,-28.35 175.07,-125.25 189.96,-295.61 192.6,-567.52 2.45,-253.21 6.24,-506.49 9.43,-759.7l-260.85 0.48c-2.22,232.57 18.27,791.03 -23.71,981.48 -59.08,267.98 -505.63,303.67 -500.16,-130.8l10.94 -868.74c-216.15,-2.59 -266.24,4.39 -269.1,231.19z"/>
   <path class="fil2" d="M6570.12 3624.11l266.63 5.58c4.96,-410.8 -35.96,-441 134.2,-773.23 77.43,-151.15 265.28,-482.31 306.48,-628.22 -289.72,-3.65 -279.44,-43.48 -378.17,194.72 -52.44,126.54 -132.87,275.22 -163.61,399.34l-96.59 -151.91c-233.25,-501.46 -98.58,-459.28 -512.56,-454.17 55.39,171.78 218.2,423.94 306.94,604.49 38.16,77.62 130.74,228.01 140.77,318.1 13.91,124.91 -2.39,349.97 -4.09,485.28z"/>
   <path class="fil1" d="M4245.98 3330.93c155.83,-30.22 176.88,-219.54 81.18,-308.61 -84.55,-78.7 -345.3,-49.15 -469.94,-50.69l-4.56 361.44 393.31 -2.15z"/>
   <path class="fil1" d="M4228.29 2721.78c154.91,-36.19 165.66,-208.44 64.04,-267.78 -58.05,-33.89 -319.82,-26.59 -409.44,-27.68l-22.54 299.6 367.94 -4.14z"/>
   <g>
    <path class="fil3" d="M3919.47 7497.8c85.95,-203.42 1045.8,-1646.97 1046.27,-1649.01 2.64,-11.26 11.02,-12.55 17.39,-18.66l-0.16 2715.36 319.68 -4.65 -5.93 -3835.11 -1441.51 2277.87c-146.31,-71.2 -307.26,-277.73 -433.24,-397.13 -75.26,-71.33 -128.74,-120.07 -203.94,-191.52 -115.39,-109.67 -104.53,-129.26 -232.65,-187.11 1.73,181.04 -35.7,379.5 65,491.91 119.87,133.83 706.95,733.16 869.09,798.06z"/>
    <path class="fil3" d="M6526.2 8478.42c32.21,-34.99 19.81,-17.12 48.67,-67.93l133.01 -413.22c183.89,-640.99 901.82,-2876.4 975.69,-3250.86l-328.85 2 -909.43 2881.1c-232.41,-348.99 -454.08,-820.28 -677.52,-1212.19 -88.43,-155.1 -142.91,-308.85 -242.05,-390.63 3.77,448.94 -59.19,487.97 107.85,778.87l892.62 1672.86z"/>
    <path class="fil3" d="M2478.75 5467.73c107.96,44.3 90.76,40.54 195.42,141.91l1036.46 990.74c-9.99,-457.62 65.33,-370.59 -206.25,-622.22l-1338.68 -1239.93 -0.88 3822.33 315.24 -20.44 -1.31 -3072.38z"/>
    <path class="fil4" d="M6441.08 6992.87c35.24,-707.26 -44.09,-726.46 -327.93,-1255.89 -173.15,-322.95 -370.22,-715.61 -569.97,-1011.66 -80.32,644.65 91.63,787.07 333.04,1234.16 120.68,223.5 435,877.64 564.86,1033.39z"/>
   </g>
  </g>
 </g>
</svg>
